<svg xmlns="http://www.w3.org/2000/svg" viewBox="0 0 99.83 99.83"><g id="Layer_2" data-name="Layer 2"><g id="Layer_1-2" data-name="Layer 1"><path d="M71,95.2A50.1,50.1,0,0,0,95.2,71Z" style="fill:#f2ebe7"/><path d="M52.27,99.83a51,51,0,0,0,8.14-1.07L98.76,60.41a51,51,0,0,0,1.07-8.14Z" style="fill:#f2ebe7"/><path d="M39.23,98.73a48.63,48.63,0,0,0,6.12.94L99.67,45.35a48.63,48.63,0,0,0-.94-6.12Z" style="fill:#f2ebe7"/><path d="M28.65,95.16a49.57,49.57,0,0,0,5,2l63.5-63.5a49.57,49.57,0,0,0-2-5Z" style="fill:#f2ebe7"/><path d="M19.83,89.84a48.77,48.77,0,0,0,4.22,2.85L92.69,24.05a48.77,48.77,0,0,0-2.85-4.22Z" style="fill:#f2ebe7"/><path d="M12.48,83.05c.66.74,1.34,1.48,2,2.19.47.47,1,.93,1.45,1.38L86.62,16c-.45-.49-.91-1-1.38-1.45-.71-.71-1.45-1.39-2.19-2Z" style="fill:#f2ebe7"/><path d="M6.55,74.83a50.73,50.73,0,0,0,2.78,4.3l69.8-69.8a50.73,50.73,0,0,0-4.3-2.78Z" style="fill:#f2ebe7"/><path d="M2.23,65a50.44,50.44,0,0,0,1.94,5.13l66-66A50.44,50.44,0,0,0,65,2.23Z" style="fill:#f2ebe7"/><path d="M0,53.1a49.44,49.44,0,0,0,.79,6.28L59.38.79A49.44,49.44,0,0,0,53.1,0Z" style="fill:#f2ebe7"/><path d="M1.44,37.52A49.6,49.6,0,0,0,.05,46L46,.05a49.6,49.6,0,0,0-8.46,1.39Z" style="fill:#f2ebe7"/><path d="M25.84,6.05A49.93,49.93,0,0,0,6.05,25.84Z" style="fill:#f2ebe7"/></g></g></svg>